<?xml version="1.0" encoding="iso-8859-1"?>
<!-- Generator: Adobe Illustrator 19.0.0, SVG Export Plug-In . SVG Version: 6.00 Build 0)  -->
<svg version="1.1" id="Capa_1" xmlns="http://www.w3.org/2000/svg" xmlns:xlink="http://www.w3.org/1999/xlink" x="0px" y="0px"
	 viewBox="0 0 511.999 511.999" style="enable-background:new 0 0 511.999 511.999;" xml:space="preserve">
<path style="fill:#FFC554;" d="M268.306,96.321c1.046,2.741,3.242,4.885,6.008,5.863c1.084,0.383,2.211,0.573,3.335,0.573
	c1.746,0,3.48-0.456,5.023-1.353c10.118-5.877,21.657-8.984,33.372-8.984c36.837,0,66.806,30.108,66.806,67.116
	c0,1.196-0.042,2.508-0.13,4.01c-0.194,3.325,1.28,6.529,3.932,8.545c1.764,1.341,3.895,2.039,6.052,2.039
	c1.086,0,2.178-0.177,3.234-0.538c5.386-1.841,10.997-2.775,16.676-2.775c7.245,0,14.144,1.509,20.41,4.222
	c16.279-18.57,26.157-42.934,26.157-69.617C459.18,47.199,412.171,0,354.184,0c-46.588,0-86.082,30.47-99.811,72.642
	C260.277,79.649,264.989,87.627,268.306,96.321z"/>
<path style="opacity:0.1;fill:#210035;enable-background:new    ;" d="M268.306,96.321c1.046,2.741,3.242,4.885,6.008,5.863
	c1.084,0.383,2.211,0.573,3.335,0.573c1.746,0,3.48-0.456,5.023-1.353c0.08-0.046,0.161-0.088,0.241-0.134
	c7.226-51.147,51.004-90.484,103.94-90.484c5.447,0,10.798,0.417,16.021,1.22C388.319,4.342,371.757,0,354.184,0
	c-46.588,0-86.082,30.47-99.811,72.642C260.277,79.649,264.989,87.627,268.306,96.321z"/>
<path style="fill:#E2EEFD;" d="M412.613,160.817c-6.97,0-13.662,1.176-19.911,3.313c0.089-1.52,0.147-3.049,0.147-4.593
	c0-42.59-34.388-77.116-76.806-77.116c-13.992,0-27.097,3.774-38.395,10.337c-13.215-34.643-46.624-59.251-85.777-59.251
	c-50.723,0-91.843,41.287-91.843,92.216c0,2.095,0.095,4.167,0.232,6.227c-35.647,6.679-62.637,38.058-62.637,75.785
	c0,42.591,34.387,77.118,76.805,77.118c1.162,0,48.476,0,105.084,0c-3.232-5.148-5.11-11.236-5.11-17.761
	c0-18.406,14.896-33.381,33.205-33.381c5.276,0,10.326,1.215,15.012,3.61c1.429,0.73,2.99,1.096,4.552,1.096
	c1.52,0,3.04-0.346,4.439-1.039c2.837-1.406,4.841-4.072,5.402-7.188c3.4-18.868,19.733-32.562,38.837-32.562
	c17.396,0,32.551,11.204,37.712,27.879c1.31,4.232,5.218,7.044,9.546,7.044c0.445,0,0.895-0.03,1.347-0.091
	c1.57-0.212,3.118-0.32,4.599-0.32c18.872,0,34.225,15.434,34.225,34.404c0,6.794-1.925,13.056-5.264,18.308
	c8.99,0,14.297,0,14.597,0c34.113,0,61.766-27.767,61.766-62.018C474.379,188.583,446.726,160.817,412.613,160.817z"/>
<g style="opacity:0.1;">
	<path style="fill:#1B003F;" d="M71.876,220.073c0-33.423,23.701-62.123,56.356-68.241c5.353-1.003,9.111-5.845,8.748-11.273
		c-0.148-2.229-0.218-4.059-0.218-5.761c0-46.947,38.015-85.141,84.74-85.141c10.139,0,20.015,1.872,29.237,5.313
		c-15.937-13.392-36.457-21.464-58.868-21.464c-50.723,0-91.843,41.287-91.843,92.216c0,2.095,0.095,4.167,0.232,6.227
		c-35.647,6.679-62.637,38.058-62.637,75.785c0,42.591,34.387,77.118,76.805,77.118c0.116,0,0.699,0,1.702,0
		C90.272,274.801,71.876,249.563,71.876,220.073z"/>
</g>
<path style="fill:#A2E8F9;" d="M247.608,223.71c7.045,0,13.689,1.703,19.564,4.707c4.179-23.193,24.376-40.789,48.678-40.789
	c22.211,0,41.003,14.69,47.265,34.922c1.943-0.263,3.924-0.41,5.939-0.41c24.425,0,44.225,19.88,44.225,44.404
	s-19.8,43.929-44.225,43.929c-2.654,0-120.095,0-121.446,0c-23.861,0-43.205-19.423-43.205-43.382
	C204.403,243.132,223.747,223.71,247.608,223.71z"/>
<g style="opacity:0.1;">
	<path style="fill:#1B003F;" d="M217.729,284.259c0-20.595,16.66-37.351,37.138-37.351c5.898,0,11.545,1.358,16.783,4.037
		c1.672,0.855,3.499,1.283,5.327,1.283c1.777,0,3.553-0.403,5.189-1.213c3.318-1.642,5.661-4.756,6.317-8.396
		c3.81-21.143,22.107-36.488,43.509-36.488c10.987,0,21.177,3.993,29.012,10.824c-7.745-17.288-25.047-29.326-45.152-29.326
		c-24.302,0-44.499,17.595-48.678,40.789c-5.875-3.004-12.519-4.707-19.564-4.707c-23.861,0-43.205,19.422-43.205,43.381
		c0,14.487,7.079,27.306,17.945,35.185C219.408,296.93,217.729,290.789,217.729,284.259z"/>
</g>
<path style="fill:#A2E8F9;" d="M170.849,352.753c0,2.842-2.015,6.329-4.479,7.75l-13.793,7.955c-2.464,1.421-6.495,1.421-8.959,0
	l-13.792-7.955c-2.464-1.421-4.479-4.908-4.479-7.75v-15.909c0-2.841,2.015-6.328,4.479-7.749l13.792-7.955
	c2.464-1.421,6.495-1.421,8.959,0l13.793,7.955c2.464,1.421,4.479,4.909,4.479,7.749V352.753z"/>
<g>
	<path style="fill:#E2EEFD;" d="M253.41,435.318c0,2.841-2.015,6.328-4.479,7.75l-13.793,7.955c-2.464,1.421-6.494,1.421-8.958,0
		l-13.792-7.955c-2.464-1.421-4.479-4.908-4.479-7.75v-15.91c0-2.842,2.015-6.329,4.479-7.75l13.792-7.955
		c2.464-1.421,6.494-1.421,8.958,0l13.793,7.955c2.464,1.421,4.479,4.908,4.479,7.75L253.41,435.318L253.41,435.318z"/>
	<path style="fill:#E2EEFD;" d="M373.124,385.743c0,2.841-2.015,6.329-4.479,7.75l-13.793,7.955c-2.463,1.421-6.494,1.421-8.958,0
		l-13.793-7.955c-2.464-1.421-4.479-4.908-4.479-7.75v-15.91c0-2.842,2.016-6.329,4.479-7.75l13.793-7.955
		c2.464-1.421,6.495-1.421,8.958,0l13.793,7.955c2.464,1.421,4.479,4.908,4.479,7.75V385.743z"/>
</g>
<path style="fill:#A2E8F9;" d="M353.793,497.45c0,2.842-2.016,6.329-4.479,7.75l-9.942,5.734c-2.464,1.42-6.495,1.42-8.958,0
	l-9.943-5.735c-2.463-1.42-4.479-4.908-4.479-7.75V485.98c0-2.841,2.016-6.329,4.479-7.75l9.943-5.734
	c2.463-1.421,6.495-1.421,8.958,0l9.942,5.734c2.463,1.421,4.479,4.908,4.479,7.75V497.45z"/>
<g>
</g>
<g>
</g>
<g>
</g>
<g>
</g>
<g>
</g>
<g>
</g>
<g>
</g>
<g>
</g>
<g>
</g>
<g>
</g>
<g>
</g>
<g>
</g>
<g>
</g>
<g>
</g>
<g>
</g>
</svg>
